# xmcd
#
# Track frame offsets:
#  150
#  18768
#  40263
#  55940
#  77047
#  91553
#  111029
#  126074
#  143134
#  162901
#  175685
#  193739
#  212839
#  235734
#
# Disc length: 3415 seconds
#
# Revision: 0
# Processed by: cddbd v1.5.2PL0 Copyright (c) Steve Scherf et al.
# Submitted via: AltoMP3_Maker 3.0
#
DISCID=ac0d550e
DTITLE=Hot Club of Cowtown - Wild Kingdom
DYEAR=1900
DGENRE=
TTITLE0=My Candy
TTITLE1=Last Call
TTITLE2=Caveman
TTITLE3=Near Mrs.
TTITLE4=Three Little Words
TTITLE5=Billy the Kid
TTITLE6=Tall Tall Ship
TTITLE7=Rodeo Blues
TTITLE8=Ways of Escape
TTITLE9=Loch Lomond
TTITLE10=High upon the Mountain
TTITLE11=Easy Money
TTITLE12=Before the Time of Men
TTITLE13=How High the Moon
EXTD=
EXTT0=
EXTT1=
EXTT2=
EXTT3=
EXTT4=
EXTT5=
EXTT6=
EXTT7=
EXTT8=
EXTT9=
EXTT10=
EXTT11=
EXTT12=
EXTT13=
PLAYORDER=
